<svg width="450" height="378" viewBox="0 0 450 378" fill="none" xmlns="http://www.w3.org/2000/svg">
<g clip-path="url(#clip0_65_2)">
<path d="M106 368C164.542 368 212 320.542 212 262C212 203.458 164.542 156 106 156C47.4578 156 0 203.458 0 262C0 320.542 47.4578 368 106 368Z" fill="#D5D2D2"/>
<path d="M281.5 337C374.56 337 450 261.56 450 168.5C450 75.44 374.56 0 281.5 0C188.44 0 113 75.44 113 168.5C113 261.56 188.44 337 281.5 337Z" fill="#D5D2D2"/>
<path d="M534 301C534 300.445 533.618 300 533.142 300H7.85829C7.38229 300 7 300.445 7 301C7 301.464 7.49992 301.681 7.96387 301.681H71.9419C72.9705 301.681 73.983 301.742 74.9825 301.86C75.6584 301.94 76.3373 302 77.0179 302H533.142C533.618 302 534 301.555 534 301Z" fill="#293E8D"/>
<path d="M67.5312 236.253C72.894 239.489 73.4231 241.017 76.6722 242.352C78.3166 243.027 81.3955 243.956 87.3367 243.114C95.5228 241.953 100.57 238.645 114.76 230.917C124.88 225.405 129.828 222.994 136.851 221.769C142.113 220.85 145.171 221.185 147.515 221.769C155.693 223.806 160.157 230.119 161.227 231.679C164.922 237.072 165.39 242.339 165.797 246.925C166.31 252.703 167.051 261.051 162.75 267.508C157.36 275.6 149.854 272.014 136.851 279.706C122.479 288.207 124.882 296.591 113.236 301.051C98.3341 306.758 82.1102 297.737 81.2427 297.239C65.8138 288.384 62.657 272.314 54.5814 273.607C49.7565 274.38 49.276 280.373 41.6316 281.993C40.2012 282.296 34.3145 283.543 30.2054 279.706C27.6805 277.348 27.7588 282.626 29.0627 279.325C30.7368 275.086 34.1143 266.813 36.2994 262.172C37.4666 259.693 36.1509 258.928 37.0611 252.262C37.5057 249.006 37.7301 247.362 38.5846 245.401C40.7018 240.541 44.8131 238.031 47.7256 236.253C51.2692 234.09 54.753 231.963 59.1519 232.441C61.6692 232.715 63.6232 233.894 67.5312 236.253Z" fill="#131016"/>
<path d="M160.465 254.549C161.816 255.657 162.138 257.902 162.75 262.172C163.316 266.123 162.972 268.546 162.75 272.845C162.417 279.298 162.942 278.697 162.75 287.329C162.592 294.431 162.513 297.983 161.988 301.051C161.045 306.569 160.542 304.449 155.894 318.585C154.951 321.453 154.2 323.887 152.086 324.683C149.436 325.681 146.383 323.452 145.992 323.159C145.349 322.677 143.086 320.98 142.945 318.585C142.765 315.544 146.203 314.774 149.039 310.199C150.809 307.342 151.234 304.483 152.086 298.764C152.895 293.325 153.3 290.606 152.086 288.091C149.87 283.503 144.802 282.081 144.468 281.993C141.435 281.19 140.455 282.327 136.85 281.993C133.479 281.68 127.926 280.093 126.948 277.419C124.267 270.089 154.01 249.257 160.465 254.549Z" fill="#131016"/>
<path d="M148.277 243.876C149.628 244.984 149.95 247.23 150.562 251.5C151.128 255.45 150.784 257.873 150.562 262.172C150.229 268.625 150.754 268.025 150.562 276.656C150.404 283.759 150.325 287.31 149.8 290.378C148.857 295.896 148.354 293.776 143.706 307.912C142.763 310.78 142.012 313.215 139.898 314.011C137.248 315.008 134.195 312.78 133.804 312.486C133.161 312.004 130.898 310.307 130.757 307.912C130.577 304.872 134.015 304.101 136.851 299.526C138.621 296.67 139.046 293.81 139.898 288.091C140.707 282.653 141.112 279.933 139.898 277.419C137.682 272.831 132.614 271.408 132.28 271.32C129.247 270.518 128.267 271.654 124.662 271.32C121.291 271.008 115.738 269.42 114.76 266.746C112.079 259.417 141.822 238.584 148.277 243.876Z" fill="#131016"/>
<path d="M125.424 281.23C126.282 282.539 127.265 285.915 129.233 292.665C130.11 295.676 135.792 315.483 137.612 321.634C138.136 323.402 138.814 325.609 140.659 327.733C142.213 329.52 143.042 329.464 143.706 330.782C145.434 334.212 142.062 339.051 141.421 339.93C140.675 340.953 137.21 345.705 132.28 345.266C131.765 345.22 128.434 344.924 127.709 342.979C126.599 339.998 133.126 337.201 133.042 332.307C132.992 329.416 130.678 328.219 127.709 324.683C121.342 317.098 124.058 313.158 119.33 307.15C112.259 298.163 99.1178 297.999 97.2394 298.002C92.3737 298.009 85.6019 298.019 81.2427 302.576C75.1654 308.929 77.6768 320.043 75.1486 336.881C75.1486 336.881 74.7387 339.61 73.6252 343.742C71.7874 350.559 70.3213 352.319 69.8164 352.889C69.1304 353.664 67.1232 355.871 63.7224 356.701C63.2539 356.816 61.0874 357.312 58.3901 356.701C56.6002 356.296 54.9683 355.926 53.8196 354.414C52.7179 352.964 52.3001 350.778 53.0579 349.078C53.9749 347.02 55.8644 347.354 58.3901 345.266C60.1727 343.793 61.1021 341.743 62.9606 337.643C63.7834 335.828 65.0158 333.076 66.0076 329.257C67.1555 324.838 67.2963 321.423 67.531 314.773C67.7289 309.171 67.6333 304.514 67.531 299.526C67.4119 293.719 67.2495 291.822 67.531 288.091C67.8265 284.177 68.1142 280.365 69.0547 278.181C74.1138 266.432 114.258 264.186 125.424 281.23Z" fill="#131016"/>
<path d="M157.418 229.392C160.674 227.59 161.139 223.373 161.988 215.67C162.607 210.058 162.976 206.717 161.227 202.71C158.866 197.302 154.434 194.778 153.609 194.325C152.708 193.829 146.79 190.689 140.659 192.8C139.804 193.095 137.538 194.779 133.042 198.136C127.676 202.142 126.889 202.906 126.186 204.235C124.305 207.789 124.505 212.594 126.186 213.383C127.463 213.982 129.669 212.3 130.756 211.096C132.056 209.656 131.861 208.784 133.042 207.284C133.978 206.095 134.858 205.681 137.612 204.235C144.433 200.653 144.779 200.178 145.991 200.423C149.014 201.035 150.455 204.712 150.562 204.997C151.484 207.448 150.852 209.677 149.8 213.383C149.244 215.344 148.612 216.857 147.515 219.482C145.529 224.234 145.006 224.591 145.23 225.58C145.962 228.826 153.118 231.772 157.418 229.392Z" fill="#131016"/>
<path d="M79.3383 242.733C80.5977 242.941 81.2088 250.147 79.3383 256.455C78.0591 260.768 75.4789 265.134 75.0185 265.905C74.6558 266.511 74.3066 267.065 73.2443 268.652C68.0485 276.416 65.4236 280.294 64.1033 280.087C62.3427 279.811 67.1615 275.644 67.5312 271.66C68.2184 264.253 71.5417 263.337 77.4339 252.602C80.6224 246.793 78.3553 242.57 79.3383 242.733Z" fill="#6C63FF"/>
<path d="M52.677 240.446C52.0402 237.202 55.661 232.697 59.5328 232.06C65.1786 231.131 70.0797 238.637 71.7208 243.495C73.978 250.177 71.4432 255.919 70.1973 258.742C68.6347 262.281 67.4664 262.514 67.1503 262.553C64.8455 262.842 62.1135 258.617 61.0563 254.93C60.126 251.686 61.1758 251.242 60.2945 248.831C58.4803 243.869 53.3567 243.907 52.677 240.446Z" fill="#2F2E41"/>
<path d="M78.2165 256.708L229.372 157.986L227.143 157.48L75.9878 256.202L78.2165 256.708Z" fill="#6C63FF"/>
<path d="M265.841 67.9153L262.53 55.7674L277.428 50.2456L279.083 61.2892L265.841 67.9153Z" fill="#A0616A"/>
<path opacity="0.1" d="M265.841 67.9151L262.53 55.7671L271.304 52.0637L268.578 66.3849L265.841 67.9151Z" fill="black"/>
<path d="M222.231 172.027C219.385 170.333 219.235 165.332 221.895 160.857C223.06 158.898 224.57 157.365 226.139 156.402L227.701 153.848L247.465 118.39C247.465 118.39 256.117 84.9484 259.639 80.905C263.161 76.8617 268.254 77.8143 268.254 77.8143L272.771 81.8295L256.649 129.194L236.754 157.233L234.088 161.135C233.99 162.974 233.365 165.034 232.2 166.993C229.539 171.468 225.076 173.722 222.231 172.027Z" fill="#A0616A"/>
<path d="M265.026 64.4454C265.026 64.4454 271.313 64.2021 275.279 69.089C279.245 73.9759 258.467 129.056 258.467 129.056L241.542 128.456L265.026 64.4454Z" fill="#6C63FF"/>
<path d="M266.669 57.6999C275.201 57.6999 282.118 50.7777 282.118 42.2389C282.118 33.7 275.201 26.7778 266.669 26.7778C258.136 26.7778 251.219 33.7 251.219 42.2389C251.219 50.7777 258.136 57.6999 266.669 57.6999Z" fill="#A0616A"/>
<path d="M230.528 266.7L220.045 292.652L213.976 286.578L211.769 274.983L220.597 263.939L230.528 266.7Z" fill="#A0616A"/>
<path d="M328.741 257.313L339.225 269.461L334.259 279.4L323.224 277.743L317.706 262.282L328.741 257.313Z" fill="#A0616A"/>
<path d="M258.944 112.366L257.565 134.729L291.774 128.655L289.567 114.85L258.944 112.366Z" fill="#A0616A"/>
<path d="M257.289 135.005L291.774 123.685C291.774 123.685 304.464 149.086 290.67 165.099C276.876 181.112 231.08 272.222 231.08 272.222L217.286 265.595L237.149 207.617L259.22 154.055L257.289 135.005Z" fill="#2F2E41"/>
<path d="M290.67 155.712L303.912 213.691L331.5 258.417L317.155 266.7L278.531 213.691L265.841 172.829L290.67 155.712Z" fill="#2F2E41"/>
<path d="M206.803 272.774H197.247C197.247 272.774 186.097 268.356 183.483 272.774C180.87 277.191 195.143 289.72 195.143 289.72C195.143 289.72 215.079 300.935 217.838 300.383C220.597 299.831 221.7 293.204 221.7 293.204L225.011 285.474L220.045 287.13C220.045 287.13 213.424 283.265 215.079 276.639L206.803 272.774Z" fill="#2F2E41"/>
<path d="M337.018 271.117V265.595L343.433 271.117C343.433 271.117 354.122 274.983 345.846 283.265C337.57 291.548 327.086 300.383 327.086 300.383C327.086 300.383 310.533 304.8 309.43 299.831C308.326 294.861 309.43 292.85 309.43 292.85L315.499 289.891L321.017 275.535L329.845 276.639L337.018 271.117Z" fill="#2F2E41"/>
<path d="M271.359 45.2759L266.393 44.7237L257.289 35.6127C257.289 35.6127 249.012 40.0301 249.012 36.7171C249.012 21.256 258.392 21.8082 266.117 20.7039C273.842 19.5995 273.014 19.3234 275.497 23.4648C276.632 25.3587 280.739 26.5018 280.739 26.5018C280.739 26.5018 288.463 16.0103 292.325 28.7105C296.188 41.4106 291.222 80.6153 295.084 83.9284C298.947 87.2415 279.226 90.5497 281.361 77.5759C283.497 64.6021 287.36 44.7237 285.153 40.3062C282.946 35.8888 282.394 36.9932 282.394 36.9932C285.129 35.8756 286.916 55.5606 276.603 56.5244L276.324 46.9324C276.324 46.9324 274.669 41.9628 271.359 45.2759Z" fill="#131016"/>
<path d="M264.462 64.326L281.014 57.7L303.085 123.961L257.675 122.306L253.586 102.529C253.586 102.529 249.594 92.2361 252.905 86.1621C256.215 80.0881 264.462 64.326 264.462 64.326Z" fill="#6C63FF"/>
<path d="M307.534 175.323C304.236 175.606 301.2 171.63 300.755 166.442C300.56 164.172 300.894 162.045 301.608 160.347L301.389 157.36L296.791 117.02C296.791 117.02 288.233 84.0227 288.739 78.6826C289.245 73.3425 290.045 71.9248 290.045 71.9248L296.054 72.5517L310.547 120.441L310.716 154.829L310.823 159.555C311.815 161.106 312.507 163.145 312.701 165.416C313.147 170.604 310.833 175.039 307.534 175.323Z" fill="#A0616A"/>
<path d="M279.635 62.9456C279.635 62.9456 284.601 59.0803 290.67 60.7369C296.739 62.3934 311.943 119.268 311.943 119.268L297.843 128.655L279.635 62.9456Z" fill="#6C63FF"/>
</g>
<defs>
<clipPath id="clip0_65_2">
<rect width="450" height="378" fill="white"/>
</clipPath>
</defs>
</svg>
