<svg width="299" height="299" viewBox="0 0 299 299" fill="none" xmlns="http://www.w3.org/2000/svg">
<g clip-path="url(#clip0_14_156)">
<path d="M124.036 112.67C103.392 96.787 81.6699 81.726 59.4799 67.9077L58.3661 67.2143V114.08H125.869L124.036 112.67ZM59.8412 112.522V69.9452C80.9508 83.1363 101.621 97.4493 121.333 112.522L59.8412 112.522ZM228.518 208.985C219.589 199.179 210.43 189.597 201.039 180.238C198.451 177.655 195.846 175.093 193.225 172.552C177.23 157.031 160.71 142.27 143.663 128.269L143.464 128.105H58.3661V210.306H229.72L228.518 208.985ZM59.8412 208.747V129.663H142.959C159.396 143.17 175.388 157.432 190.935 172.451C193.634 175.057 196.315 177.684 198.978 180.332C208.286 189.573 217.377 199.044 226.25 208.747H59.8412ZM228.518 208.985C219.589 199.179 210.43 189.597 201.039 180.238C198.451 177.655 195.846 175.093 193.225 172.552C177.23 157.031 160.71 142.27 143.663 128.269L143.464 128.105H58.3661V210.306H229.72L228.518 208.985ZM59.8412 208.747V129.663H142.959C159.396 143.17 175.388 157.432 190.935 172.451C193.634 175.057 196.315 177.684 198.978 180.332C208.286 189.573 217.377 199.044 226.25 208.747H59.8412ZM124.036 112.67C103.392 96.787 81.6699 81.726 59.4799 67.9077L58.3661 67.2143V114.08H125.869L124.036 112.67ZM59.8412 112.522V69.9452C80.9508 83.1363 101.621 97.4493 121.333 112.522L59.8412 112.522ZM124.036 112.67C103.392 96.787 81.6699 81.726 59.4799 67.9077L58.3661 67.2143V114.08H125.869L124.036 112.67ZM59.8412 112.522V69.9452C80.9508 83.1363 101.621 97.4493 121.333 112.522L59.8412 112.522ZM228.518 208.985C219.589 199.179 210.43 189.597 201.039 180.238C198.451 177.655 195.846 175.093 193.225 172.552C177.23 157.031 160.71 142.27 143.663 128.269L143.464 128.105H58.3661V210.306H229.72L228.518 208.985ZM59.8412 208.747V129.663H142.959C159.396 143.17 175.388 157.432 190.935 172.451C193.634 175.057 196.315 177.684 198.978 180.332C208.286 189.573 217.377 199.044 226.25 208.747H59.8412ZM-14.6467 224.331V225.889H43.6146V248.484H-14.6467V250.043H45.0897V224.331H-14.6467ZM58.3661 264.067V279.857L59.8413 279.713V265.626H287.015V264.067L58.3661 264.067ZM287.015 225.889V224.331H58.3661V250.043H287.015V248.484H59.8413V225.889L287.015 225.889ZM149.254 112.522C120.954 89.4608 91.067 68.6583 59.8413 50.2872V34.5093L58.3661 34.6535V50.5535L59.502 51.8728C90.6005 70.1939 120.366 90.9324 148.553 113.917L148.753 114.08H287.015V112.522L149.254 112.522ZM43.6145 112.522H-14.6467V114.08H45.0897V35.9547L43.6145 36.0988L43.6145 112.522ZM287.015 128.105H165.466L167.056 129.484C182.021 142.492 196.715 156.288 211.137 170.873C213.187 172.945 215.23 175.035 217.266 177.141C227.4 187.601 237.337 198.403 247.075 209.546L248.292 210.306H287.015V208.747H248.385C238.752 197.715 228.91 187.001 218.859 176.607C216.849 174.527 214.832 172.461 212.808 170.409C198.698 156.108 184.287 142.526 169.574 129.663H287.015V128.105ZM-14.6467 264.067V265.626H43.6146V281.302L45.0897 281.158V264.067H-14.6467ZM-14.6467 128.105V129.663H43.6146V208.747H-14.6467V210.306H45.0897V128.105H-14.6467ZM124.036 112.67C103.392 96.787 81.6699 81.726 59.4799 67.9077L58.3661 67.2143V114.08H125.869L124.036 112.67ZM59.8412 112.522V69.9452C80.9508 83.1363 101.621 97.4493 121.333 112.522L59.8412 112.522ZM228.518 208.985C219.589 199.179 210.43 189.597 201.039 180.238C198.451 177.655 195.846 175.093 193.225 172.552C177.23 157.031 160.71 142.27 143.663 128.269L143.464 128.105H58.3661V210.306H229.72L228.518 208.985ZM59.8412 208.747V129.663H142.959C159.396 143.17 175.388 157.432 190.935 172.451C193.634 175.057 196.315 177.684 198.978 180.332C208.286 189.573 217.377 199.044 226.25 208.747H59.8412ZM124.036 112.67C103.392 96.787 81.6699 81.726 59.4799 67.9077L58.3661 67.2143V114.08H125.869L124.036 112.67ZM59.8412 112.522V69.9452C80.9508 83.1363 101.621 97.4493 121.333 112.522L59.8412 112.522ZM228.518 208.985C219.589 199.179 210.43 189.597 201.039 180.238C198.451 177.655 195.846 175.093 193.225 172.552C177.23 157.031 160.71 142.27 143.663 128.269L143.464 128.105H58.3661V210.306H229.72L228.518 208.985ZM59.8412 208.747V129.663H142.959C159.396 143.17 175.388 157.432 190.935 172.451C193.634 175.057 196.315 177.684 198.978 180.332C208.286 189.573 217.377 199.044 226.25 208.747H59.8412Z" fill="white"/>
<path d="M140.1 125.078C140.1 144.81 106.277 188.769 106.277 188.769C106.277 188.769 72.4538 144.81 72.4538 125.078C72.4538 115.601 76.0173 106.514 82.3604 99.8129C88.7034 93.1123 97.3064 89.348 106.277 89.348C115.247 89.348 123.85 93.1123 130.193 99.8129C136.536 106.514 140.1 115.601 140.1 125.078Z" fill="#D5D2D2"/>
<path d="M121.739 123.524C121.739 126.754 120.832 129.912 119.133 132.598C117.435 135.284 115.02 137.378 112.194 138.614C109.369 139.85 106.26 140.174 103.261 139.544C100.262 138.913 97.5065 137.358 95.3441 135.074C93.1817 132.789 91.7091 129.879 91.1125 126.711C90.5159 123.542 90.8221 120.258 91.9923 117.273C93.1626 114.289 95.1444 111.738 97.6871 109.943C100.23 108.148 103.219 107.19 106.277 107.19C108.308 107.19 110.319 107.611 112.195 108.432C114.072 109.252 115.777 110.455 117.213 111.972C118.649 113.489 119.788 115.29 120.564 117.272C121.341 119.254 121.74 121.379 121.739 123.524Z" fill="#293E8D"/>
<path d="M106.277 214.557C111.312 214.557 115.394 210.245 115.394 204.925C115.394 199.606 111.312 195.294 106.277 195.294C101.241 195.294 97.1594 199.606 97.1594 204.925C97.1594 210.245 101.241 214.557 106.277 214.557Z" fill="#D5D2D2"/>
<path d="M193.635 84.0157C201.08 84.0157 207.115 77.6402 207.115 69.7757C207.115 61.9111 201.08 55.5356 193.635 55.5356C186.19 55.5356 180.155 61.9111 180.155 69.7757C180.155 77.6402 186.19 84.0157 193.635 84.0157Z" fill="#FF6584"/>
<path d="M235.908 113.658H169.778C169.695 113.659 169.612 113.653 169.53 113.638L200.807 56.4087C200.998 56.0522 201.275 55.7557 201.61 55.5494C201.945 55.3431 202.325 55.2344 202.713 55.2344C203.101 55.2344 203.481 55.3431 203.816 55.5494C204.151 55.7557 204.428 56.0522 204.619 56.4087L225.609 94.8138L226.615 96.6514L235.908 113.658Z" fill="white"/>
<path opacity="0.2" d="M235.908 113.658H213.329L224.413 96.6512L225.21 95.4262L225.61 94.8137L226.615 96.6512L235.908 113.658Z" fill="black"/>
<path d="M272.728 113.658H215.531L226.615 96.6514L227.413 95.4263L241.856 73.2631C242.802 71.8105 245.08 71.72 246.194 72.9891C246.268 73.0756 246.338 73.1672 246.402 73.2631L272.728 113.658Z" fill="white"/>
<path d="M276.973 194.332C280.741 194.332 283.795 191.105 283.795 187.125C283.795 183.144 280.741 179.918 276.973 179.918C273.205 179.918 270.15 183.144 270.15 187.125C270.15 191.105 273.205 194.332 276.973 194.332Z" fill="white"/>
<path d="M277.63 208.833H276.233L276.87 186.039L277.63 208.833Z" fill="#CBCBCB"/>
<path d="M276.993 190.359L278.494 188.167L276.973 190.902L276.808 190.598L276.993 190.359Z" fill="#CBCBCB"/>
<path d="M276.829 192.573L275.329 190.381L276.85 193.116L277.014 192.812L276.829 192.573Z" fill="#CBCBCB"/>
<path d="M257.573 187.416C263.138 187.416 267.649 182.65 267.649 176.772C267.649 170.893 263.138 166.127 257.573 166.127C252.008 166.127 247.497 170.893 247.497 176.772C247.497 182.65 252.008 187.416 257.573 187.416Z" fill="white"/>
<path d="M258.544 208.833H256.481L257.422 175.169L258.544 208.833Z" fill="#CBCBCB"/>
<path d="M257.604 181.549L259.819 178.311L257.573 182.351L257.331 181.902L257.604 181.549Z" fill="#CBCBCB"/>
<path d="M257.361 184.819L255.145 181.581L257.391 185.621L257.634 185.172L257.361 184.819Z" fill="#CBCBCB"/>
<path d="M23.6321 194.332C27.4001 194.332 30.4546 191.105 30.4546 187.125C30.4546 183.144 27.4001 179.918 23.6321 179.918C19.8641 179.918 16.8095 183.144 16.8095 187.125C16.8095 191.105 19.8641 194.332 23.6321 194.332Z" fill="white"/>
<path d="M24.29 208.833H22.8926L23.5295 186.039L24.29 208.833Z" fill="#CBCBCB"/>
<path d="M23.6526 190.359L25.153 188.167L23.6321 190.902L23.468 190.598L23.6526 190.359Z" fill="#CBCBCB"/>
<path d="M23.4885 192.573L21.9881 190.381L23.509 193.116L23.6732 192.812L23.4885 192.573Z" fill="#CBCBCB"/>
<path d="M4.23264 187.416C9.79766 187.416 14.309 182.65 14.309 176.772C14.309 170.893 9.79766 166.127 4.23264 166.127C-1.33238 166.127 -5.84372 170.893 -5.84372 176.772C-5.84372 182.65 -1.33238 187.416 4.23264 187.416Z" fill="white"/>
<path d="M5.20382 208.833H3.14008L4.08118 175.169L5.20382 208.833Z" fill="#CBCBCB"/>
<path d="M4.26311 181.549L6.4785 178.311L4.23278 182.351L3.99014 181.902L4.26311 181.549Z" fill="#CBCBCB"/>
<path d="M4.02052 184.819L1.80469 181.581L4.05085 185.621L4.29349 185.172L4.02052 184.819Z" fill="#CBCBCB"/>
</g>
<rect x="1" y="1" width="297" height="297" rx="148.5" stroke="#D5D2D2" stroke-width="2"/>
<defs>
<clipPath id="clip0_14_156">
<rect x="2" y="2" width="295" height="295" rx="147.5" fill="white"/>
</clipPath>
</defs>
</svg>
