<svg width="36" height="33" viewBox="0 0 36 33" fill="none" xmlns="http://www.w3.org/2000/svg">
<path d="M25.2662 20.7547H23.6853L23.125 20.2453C25.0861 18.0943 26.2668 15.3019 26.2668 12.2642C26.2668 5.49057 20.4435 0 13.2594 0C6.07528 0 0.251953 5.49057 0.251953 12.2642C0.251953 19.0377 6.07528 24.5283 13.2594 24.5283C16.4812 24.5283 19.4429 23.4151 21.7242 21.566L22.2645 22.0943V23.5849L32.2702 33L35.252 30.1887L25.2662 20.7547ZM13.2594 20.7547C8.27654 20.7547 4.25424 16.9623 4.25424 12.2642C4.25424 7.56604 8.27654 3.77358 13.2594 3.77358C18.2422 3.77358 22.2645 7.56604 22.2645 12.2642C22.2645 16.9623 18.2422 20.7547 13.2594 20.7547Z" fill="#716D74"/>
</svg>
